<svg width="181" height="57" viewBox="0 0 181 57" fill="none" xmlns="http://www.w3.org/2000/svg">
<g clip-path="url(#clip0_207_56)">
<path d="M20.7097 12.0308C15.4194 12.0308 12.1935 14.7972 10.4516 17.821H10.3226V0H0V46H10.3226V26.9566C10.3226 22.3888 13.0323 20.3944 16.3226 20.3944C20.0645 20.3944 21.6774 22.0671 21.6774 27.021V46H32V23.7399C32 16.2126 27.6774 12.0308 20.7097 12.0308Z" fill="#080515"/>
<path d="M139.927 12.972V16.2309H139.799C138.514 14.5056 135.624 11.9496 130.808 11.9496C122.395 11.9496 117 18.5953 117 28.0527C117 37.5101 122.395 44.1558 130.808 44.1558C135.624 44.1558 138.514 41.5998 139.799 39.8744H139.927V41.7915C139.927 47.2231 138.386 49.6513 133.762 49.6513C130.165 49.6513 128.56 48.1816 127.918 46.3924H117.642C118.798 51.6323 123.615 57 134.019 57C143.973 57 150.203 53.2937 150.203 42.4944V12.972H139.927ZM133.505 36.4877C129.331 36.4877 127.275 33.3565 127.275 28.0527C127.275 22.7489 129.331 19.6177 133.505 19.6177C137.679 19.6177 139.735 22.7489 139.735 28.0527C139.735 33.3565 137.679 36.4877 133.505 36.4877Z" fill="#080515"/>
<path d="M160.367 9.07399C163.257 9.07399 165.504 7.54036 165.504 4.53699C165.504 1.59753 163.257 0 160.367 0C157.477 0 155.229 1.59753 155.229 4.53699C155.229 7.54036 157.477 9.07399 160.367 9.07399ZM155.229 12.972V45.6895H165.504V12.972H155.229Z" fill="#080515"/>
<path d="M175.541 46.2646C178.56 46.2646 181 44.1558 181 40.833C181 37.574 178.56 35.4013 175.541 35.4013C172.459 35.4013 170.082 37.574 170.082 40.833C170.082 44.1558 172.459 46.2646 175.541 46.2646Z" fill="#080515"/>
<rect x="36" y="12" width="77" height="32" rx="16" fill="url(#paint0_linear_207_56)"/>
</g>
<defs>
<linearGradient id="paint0_linear_207_56" x1="30.8354" y1="8.43907" x2="122.509" y2="29.2362" gradientUnits="userSpaceOnUse">
<stop stop-color="#5D44EE"/>
<stop offset="1" stop-color="#C0B4F0"/>
</linearGradient>
<clipPath id="clip0_207_56">
<rect width="181" height="57" fill="white"/>
</clipPath>
</defs>
</svg>